<svg width="900" height="600" viewBox="0 0 900 600" fill="none" xmlns="http://www.w3.org/2000/svg">
<path d="M503.25 282L695.625 192.75" stroke="#3C207F" stroke-width="2.25"/>
<path d="M412.5 335.625L217.5 446.25" stroke="#3C207F" stroke-width="2.25"/>
<path d="M222 205.5L292.409 245.317L246.91 272.501L302.812 305.25" stroke="#3C207F" stroke-width="2.25"/>
<path d="M240.375 190.125L355.875 255.75" stroke="#3C207F" stroke-width="2.25"/>
<path d="M249.375 172.125L334.018 219.467L374.423 196.384L415.875 220.687" stroke="#3C207F" stroke-width="2.25"/>
<path d="M645.375 468.375L572.162 424.312L526.924 451.162L438 397.875" stroke="#3C207F" stroke-width="2.25"/>
<path d="M659.25 447L488.25 341.25" stroke="#3C207F" stroke-width="2.25"/>
<path d="M667.125 427.125L618.266 399.571L668.534 371.974L606.75 331.125" stroke="#3C207F" stroke-width="2.25"/>
<path d="M656.913 378.352C660.22 376.537 663.078 374.969 665.133 373.837M592.839 240.436C594.12 239.842 595.403 239.247 596.686 238.651L592.839 240.436ZM321.688 387.143C320.389 387.88 319.09 388.618 317.788 389.356L321.688 387.143ZM270.723 258.277C269.583 258.959 268.443 259.634 267.31 260.317L270.723 258.277ZM302.088 225.187C302.86 225.629 303.625 226.064 304.398 226.499L302.088 225.187ZM338.68 216.802C339.67 216.239 340.795 215.594 342.01 214.904L338.68 216.802ZM534.58 446.617C530.013 449.332 526.923 451.162 526.923 451.162C526.923 451.162 525.948 450.577 524.193 449.527L534.58 446.617ZM567.88 390.494C565.023 388.724 562.165 386.962 559.338 385.207L567.88 390.494Z" stroke="#F845FF" stroke-width="3" stroke-linecap="round"/>
</svg>
